<?xml version="1.0" standalone="no"?>
<!DOCTYPE svg PUBLIC "-//W3C//DTD SVG 20010904//EN"
 "http://www.w3.org/TR/2001/REC-SVG-20010904/DTD/svg10.dtd">
<svg version="1.0" xmlns="http://www.w3.org/2000/svg"
 width="1598.000000pt" height="714.000000pt" viewBox="0 0 1598.000000 714.000000"
 preserveAspectRatio="xMidYMid meet">

<g transform="translate(0.000000,714.000000) scale(0.100000,-0.100000)"
fill="#198754" stroke="none">
<path d="M7645 7119 c-2904 -111 -5530 -852 -6786 -1915 -381 -322 -652 -693
-768 -1050 -60 -186 -76 -289 -76 -509 0 -236 18 -344 92 -568 277 -835 1076
-1547 2348 -2091 1173 -502 2713 -833 4380 -940 461 -30 830 -39 1380 -33 508
6 656 11 1035 37 2379 163 4405 784 5618 1723 655 507 1027 1058 1093 1617 16
138 6 364 -21 494 -133 634 -641 1295 -1380 1798 -1239 844 -3152 1343 -5509
1438 -285 11 -1102 11 -1406 -1z m1475 -748 c1011 -66 1768 -175 2532 -366
1172 -293 2061 -727 2617 -1278 319 -316 521 -653 602 -1006 30 -128 36 -350
14 -482 -115 -689 -791 -1305 -2000 -1824 -808 -346 -1772 -602 -2735 -725
-2138 -273 -4469 -71 -6080 527 -186 69 -564 232 -556 240 14 14 571 -49 1201
-136 1134 -157 1570 -191 2465 -191 1868 0 3444 276 4505 789 376 182 630 351
854 566 732 705 554 1515 -474 2150 -174 108 -526 282 -745 368 -850 336
-1919 563 -3230 686 -1364 128 -2376 75 -3374 -175 -354 -89 -635 -174 -1346
-409 -633 -209 -1002 -326 -1008 -320 -10 9 176 189 288 280 488 394 1212 712
2153 945 757 188 1645 315 2532 360 116 6 239 12 275 14 144 7 1356 -3 1510
-13z m-3247 -1863 c236 -140 386 -309 443 -503 23 -78 23 -218 0 -304 -55
-204 -226 -413 -472 -577 l-81 -54 -1682 0 c-1855 0 -1723 5 -1757 -62 -25
-47 -14 -164 20 -222 53 -90 179 -195 321 -267 25 -12 33 -27 53 -94 67 -232
-28 -319 -326 -299 -124 8 -196 38 -312 131 -228 181 -399 532 -425 870 -17
218 53 423 173 508 l44 30 1781 5 1782 5 40 21 c47 25 85 84 85 134 0 53 -38
120 -88 155 l-44 30 -1800 5 -1800 5 -48 52 c-88 96 -104 240 -40 370 17 34
44 73 61 87 l31 26 1976 0 1977 0 88 -52z m4871 -28 c64 -24 132 -88 143 -133
5 -18 6 -480 3 -1027 l-5 -995 -23 -50 c-29 -63 -66 -102 -117 -126 -38 -18
-108 -19 -1782 -19 l-1742 0 -77 62 c-327 263 -553 782 -490 1128 24 136 80
232 184 321 l42 36 1694 -5 1695 -5 49 51 c62 64 87 114 87 177 0 63 -25 114
-86 175 l-47 47 -1103 6 c-607 4 -1330 7 -1607 7 l-502 0 -30 46 c-38 61 -53
131 -40 190 10 45 32 96 52 122 8 9 386 12 1829 12 1807 0 1819 0 1873 -20z"/>
<path d="M8650 3183 l-1045 -14 -52 -35 c-124 -85 -125 -191 -4 -312 l49 -49
632 -6 c349 -4 931 -7 1294 -7 599 0 664 2 686 17 112 74 164 180 131 266 -13
33 -67 94 -115 129 l-39 28 -246 -1 c-135 -1 -716 -8 -1291 -16z"/>
</g>
</svg>
